<?xml version="1.0" encoding="utf-8"?>
<!-- Generator: Adobe Illustrator 23.0.2, SVG Export Plug-In . SVG Version: 6.00 Build 0)  -->
<svg version="1.1" id="Layer_1" xmlns="http://www.w3.org/2000/svg" xmlns:xlink="http://www.w3.org/1999/xlink" x="0px" y="0px"
	 viewBox="0 0 670.9 310.4" style="enable-background:new 0 0 670.9 310.4;" xml:space="preserve">
<style type="text/css">
	.st0{fill:#C3583C;}
	.st1{fill:#FFD353;}
	.st2{fill:none;}
</style>
<path class="st0" d="M72.1,125.7c8.7,0,12.6-1.6,12.6-5.9c0-4.1-5.8-6.8-18.9-10.9c-15.1-4.8-25.3-12.6-25.3-30.3
	c0-18.7,10-30.2,31.5-30.2c18.4,0,33.4,5.8,32.7,36L87,86.6c0-8.6-6.4-12.5-15.7-12.5c-8.4,0-11.6,1.6-11.6,5.8
	c0,5.1,7.4,8.1,19.4,11.9c14.1,4.3,25.3,11,25.3,29.3c0,21.2-13.9,30.5-33.5,30.5c-17.9,0-32.7-7-33.1-34.1l17.1-4.1
	C55.4,121.8,62.4,125.7,72.1,125.7z"/>
<path class="st0" d="M147.9,147.6c0,1-0.6,1.5-1.9,1.6c-11.2,0.6-21.3,0.5-30.5-0.2c-0.9-0.1-1.3-0.9-1.3-2.3V52.1
	c0-0.9,0.4-1.3,1.3-1.3c6.2-0.1,16.3,0,30.1,0.1c1.3,0,1.9,0.5,1.9,1.5c0,1.3,0,3.5,0,6.5c-0.1,3.8-0.1,6.2-0.1,7.2
	c0,1-0.4,1.5-1.3,1.5c-3.2,0-7.8,0-13.8,0c-1.2,0-1.8,0.4-1.8,1.3c0,0.4,0,3.3-0.1,8.6c-0.1,4.5-0.1,7.9,0,10.2
	c0,0.9,0.5,1.4,1.4,1.6c1.7,0.2,5.4,0.3,11.2,0.1c1,0,1.6,0.5,1.7,1.4c0.1,1.4,0,4.2-0.1,8.1c-0.2,4.6-0.2,7.3-0.2,8.1
	c0,1.1-0.4,1.7-1.3,1.7h-10.9c-0.8,0-1.3,0.6-1.5,1.8c-0.4,3.3-0.5,9.7-0.2,19c0,1,0.7,1.6,2.2,1.8c3.1,0,7.6,0,13.3,0
	c1.3,0,1.9,0.5,1.9,1.6C147.8,139.5,147.8,144.4,147.9,147.6z"/>
<path class="st0" d="M219.3,149.4h-60.5V50.8h19.7V124h40.8V149.4z"/>
<path class="st0" d="M290.1,149.4h-60.5V50.8h19.7V124h40.8V149.4z"/>
<path class="st1" d="M337.1,151.6c-25.7,0-36.7-11.9-36.7-49.2c0-37.4,12.8-54,37.9-54c20.2,0,30.9,8,32.2,34.1l-19.2,4.8
	c0-8-5.4-11-14.5-11c-12.6,0-16.5,9.9-16.5,25.7c0,16,3.3,22.8,16.8,22.8c8.3,0,13.4-2,13.4-8.6h-20.8V93.7h40.9v21.5
	C370.6,137.8,359.6,151.6,337.1,151.6z"/>
<path class="st1" d="M425.4,148.7c0.1,0.5-0.3,0.7-1.1,0.7c-1.1,0-3.2,0-6.3,0c-3-0.1-5.7-0.1-8-0.1c-0.7,0-1.7-2.6-2.8-7.8
	c-0.8-3.9-1.4-7.3-1.8-10.1c-0.1-0.6-0.5-0.8-1.3-0.8h-4.7c-0.6,0-0.9,0.3-1.1,0.9c-0.7,4.9-1.7,10.5-2.9,16.9
	c-0.3,0.7-0.7,1.1-1.1,1.1h-14.8c-1.3,0-1.8-0.5-1.6-1.4c2.7-16.4,5.5-32.9,8.2-49.4c5.4-31.7,8.6-47.6,9.6-47.7
	c4.3-0.2,8.7-0.2,13,0c1,0.1,3.9,16,8.9,47.7C420.3,115.3,422.9,132,425.4,148.7z M404.4,115.3c-1.2-9.2-2-13.7-2.3-13.7
	c-0.4,0-0.9,2-1.5,5.9c-0.3,2.6-0.6,5.2-1,7.8c-0.1,0.2,0.3,0.4,1.1,0.5s1.6,0.1,2.3,0.1C404,115.9,404.4,115.7,404.4,115.3z"/>
<path class="st1" d="M456.8,90l0.4,59.4h-20.6l1.3-98.6h28.3l6.8,54.6l9.4-54.6h26l1,98.6h-20.9l0.4-61.3l-8.4,48.5h-17L456.8,90z"
	/>
<path class="st1" d="M582.9,149.4H521V50.8h61.8v25.4h-40.8v11.9h31.3v21.2h-31.3V124h40.8L582.9,149.4L582.9,149.4z"/>
<path class="st1" d="M631.2,127.8c0,7.3-1.9,13-5.6,17.3c-3.7,4.2-9,6.3-15.8,6.3c-5.9,0-10.9-2.3-15-6.8c-4.4-4.9-6.5-11.2-6.3-19
	c0-1.3,0-3.5,0.1-6.5c0.1-1.7,0.5-2.6,1.4-2.6s3.2-0.1,7-0.3c3.8-0.2,6.2-0.3,7-0.3s1.2,1.1,1.2,3.2v6.1c0,6,1.6,8.9,4.8,8.9
	c2.6,0,3.9-2,4.1-6.1l0.3-6.9c0.1-2.1-2.1-5.3-6.5-9.6c-7.4-7.3-11.4-11.4-12.2-12.3c-4.4-5.1-6.6-9.8-6.6-14V74.7
	c0-7.5,1.8-13.5,5.3-18c3.8-4.9,9.3-7.4,16.6-7.6c6-0.1,10.7,2,14.3,6.2c3.3,4,5,9.2,5,15.8v12.3c0,1.2-0.5,1.9-1.4,2
	c-2.4,0.3-6.9,0.3-13.5,0c-1.1,0-1.6-0.6-1.6-1.9c-0.1-1.9,0-5.2,0.3-9.9c0.1-1.7-0.2-3.5-0.9-5.2c-0.7-1.7-1.6-2.5-2.8-2.5
	c-3.2,0-4.8,2.7-4.8,8.2v6.5c0,2.6,2.2,6.2,6.6,10.9c4.1,4.4,8.3,8.8,12.4,13.2c4.4,5.5,6.6,10.3,6.6,14.5L631.2,127.8L631.2,127.8z
	"/>
<path class="st1" d="M101.9,260.8H41.1v-98.9h19.8v73.4h41V260.8z"/>
<path class="st1" d="M158.5,240.9h-21.6l-3.6,19.9h-24l23.1-99.1h26.9l24.7,99.1h-21.3L158.5,240.9z M153.7,216.9l-6.7-33.1l-6,33.1
	H153.7z"/>
<path class="st1" d="M231.6,164.1c0.2,8.5,0.1,25.3-0.1,50.4c-0.2,26.7-0.4,41.2-0.4,43.5c0,1.2-0.8,2-2.3,2.3
	c-1.5,0.3-3.4,0.4-5.8,0.3c-2.6-0.1-4.2-0.1-4.9,0c-1.1,0.1-1.6-0.9-1.6-3l0.1-37.6c-0.1-1.1-0.6-1.7-1.6-1.8c-0.8-0.2-3-0.2-6.6,0
	c-0.6,0-1,0.6-1.1,1.8c0.1,10,0,22.6-0.4,37.8c-0.1,1.5-1.2,2.3-3.3,2.5c-3.4,0.5-6.8,0.6-10.2,0.2c-1.2-0.1-1.9-1-2-2.8
	c-0.8-20.4-0.9-51.7-0.2-93.9c0-1.4,0.4-2.1,1.2-2.1h13.3c1.2,0.1,1.8,0.8,1.8,2.1c0-0.1,0,5,0,15.1c-0.2,7.7-0.2,13.7,0,18.1
	c0,0.7,0,1.2,0.1,1.5c0.1,0.5,0.3,0.8,0.7,0.9c1.7,0.5,4,0.4,6.6-0.1c0.9-0.2,1.3-0.9,1.3-2.2c0-8.9,0-20,0-33.4
	c0-1.1,0.3-1.6,0.9-1.6c3.3-0.2,7.7-0.2,13-0.2C231.2,161.8,231.6,162.6,231.6,164.1z"/>
<path class="st1" d="M286.4,187.3v73.5H265v-73.5h-25.4v-25.5h72.2v25.5H286.4z"/>
<path class="st1" d="M380.7,260.8h-62.1v-25.7H339v-47.7h-20.4v-25.7h62.1v25.7h-20.4v47.7h20.4L380.7,260.8L380.7,260.8z"/>
<path class="st0" d="M433.8,201.3c0,7.1-1.8,13.6-5.3,19.4c-0.7,1.1-4.1,5.3-10.1,12.5c-3.7,4.4-5.5,8.4-5.5,12
	c0.1,0.3,0.6,0.7,1.5,1.1c2,0.2,4.8,0.2,8.4,0c4.7-0.2,7.6-0.4,8.6-0.4c1,0,1.5,0.3,1.5,1v12.1c0,1-0.5,1.6-1.6,1.6l-35.4-0.1
	c-1,0-1.5-0.4-1.6-1.2c-0.1-0.9-0.1-2.5,0-4.7c0-8,2.2-15.7,6.4-23c0.2-0.4,4.3-5.9,12-16.5c4.3-5.8,6.4-11,6.4-15.6v-12.1
	c0-3.9-0.1-6.4-0.4-7.5c-0.7-2.8-2.2-4.3-4.5-4.3c-1.7,0-2.8,2.1-3.3,6.2c-0.2,1.5-0.2,4.9-0.2,10v3.3c0,1.2-0.4,1.9-1.3,1.9
	c-0.8,0.1-4.7,0.1-11.6,0.1c-1.2,0-1.8-0.8-1.8-2.3s0-4.3-0.1-8.3c-0.2-9.3,1.5-16,5-19.9c3.2-3.6,8.2-5.5,15-5.5
	c5.5,0,9.8,1.6,13.2,4.9c3.1,3.1,4.6,7,4.6,11.7L433.8,201.3L433.8,201.3z"/>
<path class="st0" d="M442.5,211.6c0-37.4,12.9-51.8,33-51.8s32.8,14.4,32.8,51.8c0,39.1-13.3,51.7-33.2,51.5
	C455.2,263.1,442.5,250.6,442.5,211.6z M490,212c0-16.7-4.3-24.7-14.5-24.7c-10.2,0-14.5,8.1-14.5,24.7c0,15.1,4.1,22.2,14.2,22.2
	C485.3,234.2,490,227.3,490,212z"/>
<path class="st0" d="M555.8,201.3c0,7.1-1.8,13.6-5.3,19.4c-0.7,1.1-4.1,5.3-10.1,12.5c-3.7,4.4-5.5,8.4-5.5,12
	c0.1,0.3,0.6,0.7,1.5,1.1c2,0.2,4.8,0.2,8.4,0c4.7-0.2,7.6-0.4,8.6-0.4c1,0,1.5,0.3,1.5,1v12.1c0,1-0.5,1.6-1.6,1.6l-35.4-0.1
	c-1,0-1.5-0.4-1.6-1.2c-0.1-0.9-0.1-2.5,0-4.7c0-8,2.2-15.7,6.4-23c0.2-0.4,4.3-5.9,12-16.5c4.3-5.8,6.4-11,6.4-15.6v-12.1
	c0-3.9-0.1-6.4-0.4-7.5c-0.7-2.8-2.2-4.3-4.5-4.3c-1.7,0-2.8,2.1-3.3,6.2c-0.2,1.5-0.2,4.9-0.2,10v3.3c0,1.2-0.4,1.9-1.3,1.9
	c-0.8,0.1-4.7,0.1-11.6,0.1c-1.2,0-1.8-0.8-1.8-2.3s0-4.3-0.1-8.3c-0.2-9.3,1.5-16,5-19.9c3.2-3.6,8.2-5.5,15-5.5
	c5.5,0,9.8,1.6,13.2,4.9c3.1,3.1,4.6,7,4.6,11.7L555.8,201.3L555.8,201.3z"/>
<path class="st0" d="M564.5,211.6c0-37.4,12.9-51.8,33-51.8s32.8,14.4,32.8,51.8c0,39.1-13.3,51.7-33.2,51.5
	C577.2,263.1,564.5,250.6,564.5,211.6z M612,212c0-16.7-4.3-24.7-14.5-24.7c-10.2,0-14.5,8.1-14.5,24.7c0,15.1,4.1,22.2,14.2,22.2
	C607.3,234.2,612,227.3,612,212z"/>
<path class="st0" d="M-122.2,182.9"/>
<path class="st0" d="M-120,188.8"/>
<line class="st2" x1="-120" y1="188.8" x2="-120" y2="259.7"/>
<line class="st2" x1="-120" y1="188.8" x2="-120" y2="259.7"/>
<line class="st2" x1="-120" y1="259.7" x2="-120" y2="188.8"/>
</svg>
