<svg id="Layer_1" data-name="Layer 1" xmlns="http://www.w3.org/2000/svg" viewBox="0 0 754.21 214.73"><defs><style>.cls-1{fill:#be3a22;}.cls-2{fill:#fed13a;}</style></defs><title>SELLGAMES_logo_rgb_ry</title><path class="cls-1" d="M241.07,126.73c8.71,0,12.63-1.59,12.63-6,0-4.06-5.8-6.82-18.87-10.88-15.09-4.8-25.25-12.63-25.25-30.34,0-18.72,10-30.19,31.49-30.19,18.44,0,33.39,5.81,32.66,36L256,87.54c0-8.56-6.38-12.48-15.67-12.48-8.42,0-11.61,1.6-11.61,5.81,0,5.08,7.4,8.13,19.45,11.9,14.08,4.35,25.25,11,25.25,29.32,0,21.19-13.93,30.48-33.53,30.48-17.85,0-32.65-7-33.09-34.11L224,114.39C224.38,122.81,231.35,126.73,241.07,126.73Z" transform="translate(-45.98 -49.37)"/><path class="cls-1" d="M316.89,148.58c0,1-.65,1.49-1.94,1.57a235,235,0,0,1-30.48-.24c-.89-.08-1.33-.85-1.33-2.3V53.12a1.17,1.17,0,0,1,1.33-1.33q9.31-.12,30.12.12c1.29,0,1.94.48,1.94,1.45v6.53c-.08,3.8-.12,6.19-.12,7.2s-.44,1.51-1.32,1.51H301.27c-1.2,0-1.8.45-1.8,1.33,0,.41,0,3.27-.12,8.6q-.12,6.77,0,10.16a1.48,1.48,0,0,0,1.44,1.57,84.72,84.72,0,0,0,11.16.12,1.47,1.47,0,0,1,1.68,1.45q.12,2.19-.12,8.11-.25,6.9-.25,8.11c0,1.13-.44,1.69-1.33,1.69H301c-.8,0-1.29.6-1.45,1.8q-.6,5-.24,19c0,1,.72,1.64,2.18,1.8h13.31c1.29,0,1.93.52,1.93,1.57C316.77,140.47,316.81,145.36,316.89,148.58Z" transform="translate(-45.98 -49.37)"/><path class="cls-1" d="M388.26,150.39H327.73V51.84h19.74V125h40.79Z" transform="translate(-45.98 -49.37)"/><path class="cls-1" d="M459.11,150.39H398.58V51.84h19.74V125h40.79Z" transform="translate(-45.98 -49.37)"/><path class="cls-2" d="M506.06,152.57c-25.69,0-36.72-11.9-36.72-49.21s12.77-54,37.88-54c20.18,0,30.92,8,32.22,34.11l-19.15,4.79c0-8-5.37-11-14.52-11-12.62,0-16.54,9.87-16.54,25.69s3.33,22.79,16.83,22.79c8.28,0,13.36-2,13.36-8.57H498.66V94.66h40.93v21.48C539.59,138.78,528.56,152.57,506.06,152.57Z" transform="translate(-45.98 -49.37)"/><path class="cls-2" d="M594.36,149.69q.12.72-1.08.72H587q-4.59-.12-7.95-.12-1.1,0-2.77-7.83-1.21-5.9-1.81-10.11-.12-.84-1.32-.84h-4.7a1,1,0,0,0-1.08.85q-1.08,7.32-2.89,16.95c-.32.73-.68,1.1-1.09,1.1H548.6c-1.28,0-1.8-.48-1.56-1.45q4.1-24.61,8.19-49.37,8.06-47.55,9.63-47.68a117.45,117.45,0,0,1,13,0q1.46.12,8.91,47.69Q590.63,124.64,594.36,149.69Zm-21-33.36q-1.81-13.72-2.29-13.72t-1.44,5.9q-.49,3.85-1,7.82c-.08.25.3.43,1.15.55a9.3,9.3,0,0,0,2.34.06C573,116.86,573.41,116.66,573.41,116.33Z" transform="translate(-45.98 -49.37)"/><path class="cls-2" d="M625.75,91l.44,59.36H605.58l1.3-98.55h28.31L642,106.41l9.43-54.57h26l1,98.55h-20.9L658,89.14l-8.42,48.48h-17Z" transform="translate(-45.98 -49.37)"/><path class="cls-2" d="M751.88,150.39H690.05V51.84h61.83v25.4H711.1v11.9h31.35v21.19H711.1V125h40.78Z" transform="translate(-45.98 -49.37)"/><path class="cls-2" d="M800.19,128.75q0,10.92-5.59,17.26t-15.77,6.33a19.59,19.59,0,0,1-15-6.83q-6.59-7.32-6.33-19,0-2,.13-6.46c.08-1.73.53-2.6,1.36-2.6s3.17-.08,7-.25,6.18-.25,7-.25,1.24,1.08,1.24,3.23v6.08q0,8.94,4.85,8.94c2.56,0,3.93-2,4.1-6.08l.24-7q.12-3.11-6.45-9.57-11.06-10.92-12.17-12.29-6.59-7.69-6.59-14V75.72q0-11.3,5.34-18,5.72-7.34,16.64-7.58c6-.08,10.72,2,14.29,6.21q5,6,5,15.77v12.3c0,1.24-.45,1.9-1.36,2a115.68,115.68,0,0,1-13.54,0c-1.08,0-1.61-.62-1.61-1.86-.09-1.9,0-5.21.25-9.93a11.84,11.84,0,0,0-.94-5.16c-.7-1.69-1.63-2.54-2.79-2.54q-4.85,0-4.84,8.19v6.46q0,3.85,6.58,10.93l12.42,13.16q6.57,8.19,6.58,14.53Z" transform="translate(-45.98 -49.37)"/><path class="cls-2" d="M270.86,261.78H210.09V162.83h19.82v73.45h41Z" transform="translate(-45.98 -49.37)"/><path class="cls-2" d="M327.52,241.89H305.89l-3.63,19.89H278.31l23.08-99.14h26.85l24.68,99.14H331.58Zm-4.79-23.95-6.68-33.09-5.95,33.09Z" transform="translate(-45.98 -49.37)"/><path class="cls-2" d="M400.6,165.07q.24,12.75-.12,50.42-.37,40.09-.37,43.49c0,1.22-.75,2-2.26,2.25a27.48,27.48,0,0,1-5.79.3,45.19,45.19,0,0,0-4.88,0c-1.05.08-1.58-.93-1.58-3l.12-37.57a1.78,1.78,0,0,0-1.59-1.82,38.29,38.29,0,0,0-6.58,0c-.65,0-1,.61-1.1,1.82q.12,15-.36,37.82c-.09,1.46-1.18,2.31-3.3,2.55a42.8,42.8,0,0,1-10.24.24c-1.22-.08-1.87-1-1.95-2.8q-1.22-30.57-.25-93.9c0-1.38.41-2.07,1.22-2.07h13.3a1.8,1.8,0,0,1,1.83,2.07V180q-.26,11.6,0,18.05a5.78,5.78,0,0,0,.11,1.46.92.92,0,0,0,.72.86,14.26,14.26,0,0,0,6.64-.12c.87-.16,1.31-.89,1.31-2.18V164.57c0-1.12.28-1.65.85-1.57q5-.24,13.05-.24C400.19,162.84,400.6,163.61,400.6,165.07Z" transform="translate(-45.98 -49.37)"/><path class="cls-2" d="M455.41,188.3v73.48H434V188.3H408.61V162.79h72.16V188.3Z" transform="translate(-45.98 -49.37)"/><path class="cls-2" d="M549.71,261.78H487.58V236.11H508v-47.7H487.58V162.74h62.13v25.67H529.29v47.7h20.42Z" transform="translate(-45.98 -49.37)"/><path class="cls-1" d="M602.85,202.25a36.64,36.64,0,0,1-5.35,19.45q-1.1,1.7-10.09,12.51-5.46,6.57-5.46,12c.08.33.56.69,1.45,1.09a67.77,67.77,0,0,0,8.39,0c4.7-.24,7.57-.36,8.63-.36s1.46.32,1.46,1v12.15a1.4,1.4,0,0,1-1.59,1.58l-35.36-.12c-1,0-1.5-.4-1.58-1.21a52.69,52.69,0,0,1,6.44-27.71q.38-.6,12-16.53,6.45-8.74,6.44-15.55V188.4a47.27,47.27,0,0,0-.36-7.53q-1-4.26-4.5-4.26-2.55,0-3.28,6.2-.24,2.31-.24,10v3.29c0,1.21-.43,1.86-1.28,1.94s-4.72.12-11.6.12c-1.22,0-1.82-.75-1.82-2.25s0-4.27-.13-8.32q-.24-14,5-19.93,4.76-5.46,15-5.47,8.16,0,13.16,4.86a15.8,15.8,0,0,1,4.64,11.67Z" transform="translate(-45.98 -49.37)"/><path class="cls-1" d="M611.53,212.57c0-37.45,12.92-51.82,33-51.82s32.8,14.37,32.8,51.82c0,39.05-13.36,51.67-33.24,51.53S611.53,251.62,611.53,212.57ZM659,213c0-16.69-4.35-24.68-14.51-24.68S630,196.46,630,213c0,15.09,4.06,22.2,14.22,22.2S659,228.25,659,213Z" transform="translate(-45.98 -49.37)"/><path class="cls-1" d="M724.85,202.25a36.55,36.55,0,0,1-5.35,19.45q-1.1,1.7-10.08,12.51-5.48,6.57-5.47,12c.08.33.57.69,1.46,1.09a67.61,67.61,0,0,0,8.38,0q7.05-.36,8.63-.36c1,0,1.46.32,1.46,1v12.15a1.4,1.4,0,0,1-1.58,1.58l-35.36-.12c-1,0-1.5-.4-1.58-1.21a52.69,52.69,0,0,1,6.44-27.71q.36-.6,12-16.53,6.43-8.74,6.44-15.55V188.4a45.61,45.61,0,0,0-.37-7.53c-.65-2.84-2.14-4.26-4.49-4.26-1.7,0-2.8,2.07-3.28,6.2q-.25,2.31-.25,10v3.29c0,1.21-.42,1.86-1.27,1.94s-4.72.12-11.61.12c-1.21,0-1.82-.75-1.82-2.25s0-4.27-.12-8.32q-.24-14,5-19.93,4.76-5.46,15-5.47,8.18,0,13.17,4.86a15.79,15.79,0,0,1,4.63,11.67Z" transform="translate(-45.98 -49.37)"/><path class="cls-1" d="M733.53,212.57c0-37.45,12.92-51.82,33-51.82s32.8,14.37,32.8,51.82c0,39.05-13.35,51.67-33.24,51.53S733.53,251.62,733.53,212.57ZM781,213c0-16.69-4.35-24.68-14.51-24.68S752,196.46,752,213c0,15.09,4.07,22.2,14.23,22.2S781,228.25,781,213Z" transform="translate(-45.98 -49.37)"/><polyline class="cls-1" points="0.01 212.43 32.32 212.33 45.04 62.4 0 141.51"/><polygon class="cls-2" points="84.04 25.73 0.01 212.43 78.82 212.43 84.04 25.73"/><polyline class="cls-1" points="126.68 135.62 126.69 2.12 48.39 212.43 97.83 212.45"/><path class="cls-1" d="M43.82,184.88" transform="translate(-45.98 -49.37)"/><path class="cls-1" d="M46,190.8" transform="translate(-45.98 -49.37)"/><line class="cls-1" x1="0.04" y1="141.43" x2="0.05" y2="212.33"/><line class="cls-1" x1="0.05" y1="141.41" x2="0.05" y2="212.33"/><line class="cls-1" x1="0.05" y1="212.33" x2="0.05" y2="141.41"/><line class="cls-1" x1="97.87" y1="212.35" x2="126.73" y2="135.53"/></svg>