<svg id="Layer_1" data-name="Layer 1" xmlns="http://www.w3.org/2000/svg" viewBox="0 0 593.37 214.73"><defs><style>.cls-1{fill:#fff;}</style></defs><title>SELLGAMES_logo_rgb_w</title><path class="cls-1" d="M88.79,127.36c8.71,0,12.63-1.6,12.63-6,0-4.06-5.81-6.82-18.87-10.89-15.1-4.79-25.26-12.62-25.26-30.33,0-18.73,10-30.19,31.5-30.19,18.43,0,33.38,5.8,32.66,36l-17.71,2.18c0-8.56-6.39-12.48-15.68-12.48-8.42,0-11.61,1.6-11.61,5.8,0,5.08,7.4,8.13,19.45,11.91,14.08,4.35,25.26,11,25.26,29.32,0,21.19-13.94,30.48-33.53,30.48-17.85,0-32.66-7-33.1-34.11L71.66,115C72.1,123.44,79.06,127.36,88.79,127.36Z" transform="translate(-54.53 -50)"/><path class="cls-1" d="M164.61,149.21c0,1-.65,1.49-2,1.57a234.85,234.85,0,0,1-30.47-.24c-.9-.08-1.34-.85-1.34-2.3V53.75a1.18,1.18,0,0,1,1.33-1.34q9.31-.12,30.13.13c1.29,0,1.93.48,1.93,1.45v6.53q-.12,5.68-.12,7.2c0,1-.44,1.51-1.32,1.51H149c-1.21,0-1.81.45-1.81,1.33q0,.61-.12,8.59-.12,6.78,0,10.17a1.48,1.48,0,0,0,1.44,1.57,86.63,86.63,0,0,0,11.16.12,1.47,1.47,0,0,1,1.68,1.45q.12,2.19-.12,8.11-.24,6.9-.24,8.11c0,1.13-.45,1.69-1.33,1.69H148.76c-.81,0-1.29.6-1.46,1.8q-.6,5-.24,19c0,1,.73,1.64,2.18,1.8h13.31c1.29,0,1.94.52,1.94,1.57Q164.49,144.37,164.61,149.21Z" transform="translate(-54.53 -50)"/><path class="cls-1" d="M236,151H175.45V52.47h19.74v73.15H236Z" transform="translate(-54.53 -50)"/><path class="cls-1" d="M306.82,151H246.3V52.47H266v73.15h40.78Z" transform="translate(-54.53 -50)"/><path class="cls-1" d="M353.78,153.2c-25.69,0-36.73-11.91-36.73-49.21s12.78-54,37.89-54c20.17,0,30.91,8,32.22,34.11L368,88.9c0-8-5.37-11-14.51-11-12.63,0-16.55,9.87-16.55,25.69s3.34,22.78,16.84,22.78c8.27,0,13.35-2,13.35-8.56H346.37V95.28h40.94v21.48C387.31,139.41,376.27,153.2,353.78,153.2Z" transform="translate(-54.53 -50)"/><path class="cls-1" d="M442.07,150.32q.12.72-1.08.72h-6.26q-4.58-.12-8-.12-1.08,0-2.77-7.83-1.2-5.9-1.8-10.11c-.08-.56-.53-.85-1.33-.85h-4.69a1,1,0,0,0-1.09.86q-1.08,7.32-2.89,16.95c-.32.73-.68,1.1-1.08,1.1H396.32c-1.29,0-1.81-.48-1.57-1.45q4.1-24.61,8.19-49.37,8.07-47.55,9.63-47.68a117.63,117.63,0,0,1,13,0q1.44.12,8.91,47.69Q438.35,125.27,442.07,150.32ZM421.12,117q-1.8-13.72-2.28-13.72c-.41,0-.89,2-1.45,5.9-.32,2.57-.64,5.17-1,7.82q-.12.36,1.14.54a9,9,0,0,0,2.35.07C420.72,117.49,421.12,117.28,421.12,117Z" transform="translate(-54.53 -50)"/><path class="cls-1" d="M473.47,91.65,473.9,151H453.29l1.31-98.55h28.3L489.72,107l9.44-54.57h26l1,98.55h-20.9l.44-61.25-8.42,48.48h-17Z" transform="translate(-54.53 -50)"/><path class="cls-1" d="M599.6,151H537.77V52.47H599.6v25.4H558.81v11.9h31.35V111H558.81v14.66H599.6Z" transform="translate(-54.53 -50)"/><path class="cls-1" d="M647.9,129.38q0,10.92-5.59,17.26T626.54,153a19.57,19.57,0,0,1-15-6.83q-6.59-7.32-6.34-19c0-1.32.05-3.48.13-6.46.08-1.74.54-2.6,1.37-2.6s3.16-.09,7-.25,6.19-.25,7-.25,1.24,1.08,1.24,3.23v6.08q0,8.94,4.84,8.94c2.57,0,3.93-2,4.1-6.08l.25-7q.12-3.09-6.46-9.56-11.05-10.92-12.17-12.29-6.59-7.69-6.58-14V76.35q0-11.3,5.34-18Q617,51,627.91,50.77q8.94-.12,14.28,6.21,5,6,5,15.77v12.3c0,1.24-.46,1.9-1.37,2a115.47,115.47,0,0,1-13.53,0q-1.62,0-1.62-1.86-.12-2.86.25-9.94a12,12,0,0,0-.93-5.15c-.71-1.7-1.64-2.54-2.8-2.54q-4.83,0-4.84,8.19v6.46q0,3.86,6.58,10.93l12.42,13.16q6.58,8.19,6.58,14.53Z" transform="translate(-54.53 -50)"/><path class="cls-1" d="M118.58,262.4H57.81V163.46H77.63V236.9h41Z" transform="translate(-54.53 -50)"/><path class="cls-1" d="M175.23,242.52H153.6L150,262.4H126l23.08-99.13H176l24.67,99.13H179.29Zm-4.79-24-6.68-33.09-5.95,33.09Z" transform="translate(-54.53 -50)"/><path class="cls-1" d="M248.31,165.7q.24,12.75-.12,50.42-.37,40.08-.37,43.49c0,1.22-.75,2-2.25,2.25a27.63,27.63,0,0,1-5.8.3,45,45,0,0,0-4.87,0c-1.06.08-1.59-.93-1.59-3l.12-37.57a1.78,1.78,0,0,0-1.58-1.82,38.45,38.45,0,0,0-6.59,0c-.65,0-1,.6-1.09,1.82q.12,15-.37,37.81c-.08,1.46-1.18,2.31-3.29,2.56a42.9,42.9,0,0,1-10.25.24c-1.22-.08-1.87-1-1.95-2.8q-1.22-30.57-.24-93.9c0-1.38.41-2.07,1.22-2.07h13.29a1.8,1.8,0,0,1,1.83,2.07v15.12q-.24,11.6,0,18a5.63,5.63,0,0,0,.12,1.46.91.91,0,0,0,.71.86,14.15,14.15,0,0,0,6.64-.13c.87-.16,1.31-.88,1.31-2.18V165.2c0-1.12.28-1.65.85-1.57q5-.24,13.05-.24C247.9,163.47,248.31,164.24,248.31,165.7Z" transform="translate(-54.53 -50)"/><path class="cls-1" d="M303.12,188.93V262.4H281.69V188.93H256.32V163.41h72.17v25.52Z" transform="translate(-54.53 -50)"/><path class="cls-1" d="M397.43,262.4H335.29V236.74h20.42V189H335.29V163.37h62.14V189H377v47.7h20.42Z" transform="translate(-54.53 -50)"/><path class="cls-1" d="M450.56,202.88a36.49,36.49,0,0,1-5.35,19.44q-1.09,1.71-10.08,12.52c-3.65,4.37-5.47,8.39-5.47,12,.08.32.57.69,1.46,1.09a67.61,67.61,0,0,0,8.38,0q7-.36,8.63-.36c1,0,1.46.32,1.46,1v12.15A1.4,1.4,0,0,1,448,262.3l-35.36-.12c-1,0-1.5-.41-1.58-1.21a52.69,52.69,0,0,1,6.44-27.71q.36-.6,12-16.53Q436,208,436,201.18V189a45.84,45.84,0,0,0-.37-7.54c-.65-2.83-2.14-4.25-4.49-4.25-1.7,0-2.8,2.07-3.28,6.2q-.25,2.31-.25,10v3.28c0,1.22-.42,1.87-1.27,1.95s-4.72.12-11.61.12c-1.21,0-1.82-.75-1.82-2.25s0-4.27-.12-8.32q-.24-14,5-19.93,4.75-5.48,15-5.47,8.17,0,13.17,4.86a15.79,15.79,0,0,1,4.63,11.67Z" transform="translate(-54.53 -50)"/><path class="cls-1" d="M459.24,213.2c0-37.45,12.92-51.82,32.95-51.82S525,175.75,525,213.2c0,39-13.35,51.67-33.24,51.53S459.24,252.24,459.24,213.2Zm47.46.43c0-16.69-4.35-24.67-14.51-24.67s-14.52,8.13-14.52,24.67c0,15.1,4.07,22.21,14.23,22.21S506.7,228.88,506.7,213.63Z" transform="translate(-54.53 -50)"/><path class="cls-1" d="M572.57,202.88a36.58,36.58,0,0,1-5.35,19.44q-1.1,1.71-10.09,12.52c-3.64,4.37-5.47,8.39-5.47,12,.08.32.57.69,1.46,1.09a67.77,67.77,0,0,0,8.39,0c4.69-.24,7.57-.36,8.62-.36s1.46.32,1.46,1v12.15A1.4,1.4,0,0,1,570,262.3l-35.36-.12c-1,0-1.5-.41-1.58-1.21a52.69,52.69,0,0,1,6.44-27.71q.38-.6,12-16.53Q558,208,558,201.18V189a47.51,47.51,0,0,0-.36-7.54q-1-4.25-4.5-4.25-2.55,0-3.28,6.2-.24,2.31-.24,10v3.28c0,1.22-.43,1.87-1.28,1.95s-4.72.12-11.6.12q-1.83,0-1.83-2.25t-.12-8.32q-.24-14,5-19.93,4.76-5.48,15-5.47,8.16,0,13.16,4.86a15.8,15.8,0,0,1,4.64,11.67Z" transform="translate(-54.53 -50)"/><path class="cls-1" d="M581.25,213.2c0-37.45,12.91-51.82,32.94-51.82S647,175.75,647,213.2c0,39-13.36,51.67-33.24,51.53S581.25,252.24,581.25,213.2Zm47.46.43c0-16.69-4.36-24.67-14.52-24.67s-14.51,8.13-14.51,24.67c0,15.1,4.06,22.21,14.22,22.21S628.71,228.88,628.71,213.63Z" transform="translate(-54.53 -50)"/></svg>